<?xml version="1.0" standalone="no"?>
<!DOCTYPE svg PUBLIC "-//W3C//DTD SVG 20010904//EN"
 "http://www.w3.org/TR/2001/REC-SVG-20010904/DTD/svg10.dtd">
<svg version="1.0" xmlns="http://www.w3.org/2000/svg"
 width="1146.000000pt" height="821.000000pt" viewBox="0 0 1146.000000 821.000000"
 preserveAspectRatio="xMidYMid meet">

<g transform="translate(0.000000,821.000000) scale(0.100000,-0.100000)"
fill="#000000" stroke="none">
<path d="M4541 6325 c-35 -8 -103 -33 -150 -57 -116 -57 -239 -177 -296 -291
-37 -71 -43 -78 -80 -87 -76 -19 -187 -82 -245 -140 -63 -63 -122 -169 -140
-251 -17 -78 -8 -229 17 -300 56 -154 189 -278 348 -325 85 -24 221 -22 306 5
63 20 171 82 196 113 11 13 21 13 80 0 80 -17 221 -11 300 13 l52 15 46 -44
c129 -125 336 -156 501 -75 l61 30 49 -30 c174 -109 403 -12 445 186 37 181
-103 353 -285 353 l-51 0 -25 53 c-45 96 -133 169 -272 225 -19 8 -28 19 -28
35 0 43 -30 142 -65 212 -86 176 -248 306 -443 356 -89 23 -226 24 -321 4z
m304 -80 c108 -29 184 -73 271 -160 98 -97 147 -187 170 -315 9 -47 19 -92 23
-100 4 -8 28 -19 52 -25 108 -28 199 -103 244 -203 42 -93 35 -87 111 -84 87
5 142 -16 188 -69 78 -92 73 -204 -13 -290 -52 -53 -111 -75 -176 -64 -44 7
-110 42 -139 74 -25 28 -38 27 -88 -9 -63 -46 -166 -74 -242 -66 -84 8 -170
52 -235 121 -42 44 -59 55 -75 50 -169 -49 -258 -56 -377 -29 l-69 16 -48 -43
c-180 -160 -444 -153 -615 18 -136 135 -170 331 -90 502 56 118 201 232 316
247 24 4 49 9 53 13 5 3 29 46 53 95 75 153 214 271 376 317 77 23 231 24 310
4z"/>
<path d="M5945 6321 c-165 -41 -302 -135 -397 -274 -44 -65 -88 -157 -88 -187
0 -22 31 -43 52 -35 7 3 32 46 56 97 35 73 57 104 117 164 120 118 254 174
420 174 168 0 294 -50 415 -166 106 -102 169 -223 185 -361 9 -70 15 -79 62
-88 99 -18 207 -107 249 -203 41 -93 34 -87 111 -84 108 6 184 -36 224 -123
68 -148 -65 -325 -226 -300 -44 6 -135 57 -135 75 0 24 -49 22 -82 -4 -68 -51
-126 -70 -218 -71 -77 0 -92 3 -152 33 -46 22 -83 51 -117 89 l-51 57 -72 -23
c-40 -12 -104 -26 -142 -29 -76 -8 -101 -26 -80 -59 10 -15 25 -18 84 -16 39
1 96 9 127 18 l54 16 47 -46 c126 -124 333 -155 498 -74 l61 30 49 -30 c168
-105 385 -23 440 166 53 182 -74 360 -266 371 l-65 4 -24 52 c-46 96 -160 188
-283 230 -12 3 -18 16 -18 35 0 17 -11 65 -25 108 -71 224 -252 395 -481 453
-96 25 -232 25 -329 1z"/>
<path d="M5510 4730 c-11 -7 -16 -33 -19 -95 -3 -85 -3 -86 -35 -99 -81 -34
-125 -115 -126 -227 0 -83 8 -99 52 -99 15 0 28 -3 28 -7 0 -5 -14 -103 -32
-219 -17 -116 -29 -218 -25 -227 10 -26 56 -22 67 6 5 12 22 114 39 227 17
112 35 208 39 212 5 5 172 7 373 6 l364 -3 35 -220 c19 -121 39 -226 43 -232
13 -20 55 -16 62 6 3 10 -8 107 -25 214 -37 244 -37 237 -2 237 41 0 52 17 52
83 0 120 -46 206 -130 243 l-40 18 0 81 c0 50 -5 86 -12 93 -15 15 -685 17
-708 2z m640 -120 l0 -50 -290 0 -290 0 0 50 0 50 290 0 290 0 0 -50z m89
-148 c48 -24 73 -62 79 -121 l5 -51 -457 0 -456 0 0 40 c0 67 38 122 96 140
16 4 180 9 364 9 300 1 339 -1 369 -17z"/>
<path d="M6770 4730 c-11 -7 -16 -33 -19 -95 -3 -85 -3 -86 -35 -99 -81 -34
-125 -115 -126 -227 0 -83 8 -99 52 -99 15 0 28 -3 28 -7 0 -5 -79 -524 -176
-1156 -143 -928 -174 -1150 -164 -1162 11 -13 113 -15 795 -15 642 0 785 2
794 13 8 10 -33 299 -164 1150 -96 625 -175 1146 -175 1157 0 15 7 20 28 20
41 0 52 17 52 83 0 120 -46 206 -130 243 l-40 18 0 81 c0 50 -5 86 -12 93 -15
15 -685 17 -708 2z m640 -120 l0 -50 -290 0 -290 0 0 50 0 50 290 0 290 0 0
-50z m89 -148 c48 -24 73 -62 79 -121 l5 -51 -457 0 -456 0 0 40 c0 67 38 122
96 140 16 4 180 9 364 9 300 1 339 -1 369 -17z m163 -1337 c91 -594 169 -1101
173 -1127 l7 -48 -716 0 c-680 0 -716 1 -716 18 0 10 77 515 170 1122 94 607
170 1108 170 1112 0 5 168 7 373 6 l372 -3 167 -1080z"/>
<path d="M3548 4189 c-17 -9 -18 -75 -18 -1152 0 -876 3 -1146 12 -1155 17
-17 2649 -17 2666 0 16 16 15 33 -4 52 -14 14 -146 16 -1305 16 l-1289 0 0
1065 c0 586 2 1065 5 1065 3 0 195 -115 426 -255 231 -140 426 -255 433 -255
36 0 38 24 31 270 -4 132 -4 240 0 240 6 0 739 -444 822 -497 18 -12 112 -14
573 -13 303 0 557 3 565 6 21 8 29 43 13 61 -11 14 -69 15 -558 12 l-545 -4
-435 266 c-521 318 -475 293 -501 279 -20 -11 -20 -15 -13 -257 6 -217 5 -246
-8 -241 -8 4 -197 117 -420 252 -223 135 -411 248 -419 250 -8 3 -22 1 -31 -5z"/>
<path d="M3928 3249 c-16 -9 -18 -29 -18 -182 0 -95 4 -178 8 -185 7 -9 51
-12 188 -10 l179 3 3 180 c2 160 1 181 -15 192 -21 16 -319 18 -345 2z m282
-189 l0 -120 -110 0 -110 0 0 120 0 120 110 0 110 0 0 -120z"/>
<path d="M4457 3247 c-16 -11 -17 -32 -15 -192 l3 -180 179 -3 c137 -2 181 1
188 10 4 7 8 90 8 185 0 160 -1 173 -19 183 -29 15 -323 13 -344 -3z m283
-187 l0 -120 -110 0 -110 0 0 120 0 120 110 0 110 0 0 -120z"/>
<path d="M4987 3247 c-16 -11 -17 -32 -15 -192 l3 -180 179 -3 c137 -2 181 1
188 10 4 7 8 88 8 180 0 138 -3 169 -16 182 -13 13 -43 16 -173 16 -110 0
-162 -4 -174 -13z m283 -187 l0 -120 -110 0 -110 0 0 120 0 120 110 0 110 0 0
-120z"/>
<path d="M5517 3247 c-16 -11 -17 -32 -15 -192 l3 -180 174 -3 c119 -2 178 1
187 9 22 18 20 341 -2 363 -13 13 -43 16 -173 16 -110 0 -162 -4 -174 -13z
m281 -184 l-3 -118 -110 0 -110 0 -3 104 c-1 58 0 111 2 118 4 10 34 13 116
13 l111 0 -3 -117z"/>
<path d="M3922 2668 c-17 -17 -17 -349 0 -366 17 -17 339 -17 356 0 17 17 17
349 0 366 -17 17 -339 17 -356 0z m288 -183 l0 -115 -110 0 -110 0 0 115 0
115 110 0 110 0 0 -115z"/>
<path d="M4452 2668 c-17 -17 -17 -349 0 -366 17 -17 339 -17 356 0 17 17 17
349 0 366 -17 17 -339 17 -356 0z m288 -183 l0 -115 -110 0 -110 0 0 115 0
115 110 0 110 0 0 -115z"/>
<path d="M4982 2668 c-17 -17 -17 -349 0 -366 17 -17 339 -17 356 0 8 8 12 63
12 183 0 120 -4 175 -12 183 -17 17 -339 17 -356 0z m288 -183 l0 -115 -110 0
-110 0 0 115 0 115 110 0 110 0 0 -115z"/>
<path d="M5512 2672 c-9 -7 -12 -52 -10 -193 l3 -184 175 -3 c156 -2 176 -1
187 15 16 21 18 325 3 354 -10 18 -23 19 -178 19 -92 0 -173 -4 -180 -8z m288
-187 l0 -115 -115 0 -115 0 0 115 0 115 115 0 115 0 0 -115z"/>
</g>
</svg>
